<svg xmlns="http://www.w3.org/2000/svg" viewBox="0 0 1200 800" role="img" aria-labelledby="title desc">
  <title id="title">Mac相談室</title>
  <desc id="desc">記事画像準備中のプレースホルダー</desc>
  <defs>
    <linearGradient id="bg" x1="0" y1="0" x2="1" y2="1">
      <stop offset="0" stop-color="#f5f5f7"/>
      <stop offset="1" stop-color="#e8f2fc"/>
    </linearGradient>
    <linearGradient id="accent" x1="0" y1="0" x2="1" y2="1">
      <stop offset="0" stop-color="#0071e3"/>
      <stop offset="1" stop-color="#0058b9"/>
    </linearGradient>
  </defs>
  <rect width="1200" height="800" fill="url(#bg)"/>
  <circle cx="970" cy="120" r="230" fill="#fff" opacity=".72"/>
  <circle cx="170" cy="700" r="270" fill="#dcecff" opacity=".65"/>
  <rect x="110" y="112" width="980" height="576" rx="38" fill="#fff" stroke="rgba(0,0,0,.08)"/>
  <rect x="178" y="185" width="68" height="68" rx="18" fill="url(#accent)"/>
  <rect x="194" y="225" width="9" height="18" rx="4" fill="#fff" opacity=".72"/>
  <rect x="209" y="204" width="9" height="39" rx="4" fill="#fff"/>
  <rect x="224" y="230" width="9" height="13" rx="4" fill="#fff" opacity=".58"/>
  <text x="278" y="232" fill="#1d1d1f" font-family="-apple-system,BlinkMacSystemFont,'Hiragino Sans',sans-serif" font-size="42" font-weight="650">Mac相談室</text>
  <line x1="178" y1="294" x2="1022" y2="294" stroke="rgba(0,0,0,.1)"/>
  <rect x="178" y="353" width="640" height="30" rx="15" fill="#1d1d1f" opacity=".9"/>
  <rect x="178" y="411" width="778" height="18" rx="9" fill="#86868b" opacity=".38"/>
  <rect x="178" y="448" width="704" height="18" rx="9" fill="#86868b" opacity=".28"/>
  <rect x="178" y="518" width="310" height="12" rx="6" fill="#1fa463" opacity=".9"/>
  <rect x="178" y="552" width="844" height="1" fill="rgba(0,0,0,.1)"/>
  <text x="178" y="616" fill="#86868b" font-family="ui-monospace,'SF Mono',monospace" font-size="22">IMAGE PREPARING</text>
</svg>
